<?xml version="1.0" encoding="utf-8"?>
<!-- Generator: Adobe Illustrator 26.0.3, SVG Export Plug-In . SVG Version: 6.00 Build 0)  -->
<svg version="1.1" id="Layer_1" xmlns="http://www.w3.org/2000/svg" xmlns:xlink="http://www.w3.org/1999/xlink" x="0px" y="0px"
	 viewBox="0 0 222.617 185.511" style="enable-background:new 0 0 222.617 185.511;" xml:space="preserve">
<style type="text/css">
	.st0{fill:#070000;}
</style>
<g>
	<path class="st0" d="M73.864,86.325c0,5.141-4.183,9.323-9.323,9.323s-9.323-4.183-9.323-9.323
		c0-13.963-11.36-25.323-25.323-25.323c-13.963,0-25.323,11.36-25.323,25.323h16c0-5.141,4.183-9.323,9.323-9.323
		s9.323,4.182,9.323,9.323c0,13.963,11.36,25.323,25.323,25.323c13.963,0,25.323-11.36,25.323-25.323H73.864z"/>
	<path class="st0" d="M141.407,126.817c6.831,0,12.388-5.557,12.388-12.387s-5.557-12.387-12.388-12.387
		c-6.83,0-12.387,5.557-12.387,12.387S134.577,126.817,141.407,126.817z M141.407,110.817c1.992,0,3.613,1.621,3.613,3.613
		s-1.621,3.613-3.613,3.613s-3.612-1.621-3.612-3.613S139.415,110.817,141.407,110.817z"/>
	<path class="st0" d="M141.407,81.39c6.831,0,12.388-5.557,12.388-12.387s-5.557-12.387-12.388-12.387
		c-6.83,0-12.387,5.557-12.387,12.387S134.577,81.39,141.407,81.39z M141.407,65.39c1.992,0,3.613,1.621,3.613,3.613
		s-1.621,3.613-3.613,3.613s-3.612-1.621-3.612-3.613S139.415,65.39,141.407,65.39z"/>
	<polygon class="st0" points="130.348,5.56 87.043,48.864 98.357,60.178 130.348,28.187 194.33,92.169 130.348,156.151 
		98.357,124.16 87.043,135.474 130.348,178.778 216.957,92.169 	"/>
</g>
</svg>
