<?xml version="1.0" encoding="UTF-8"?>
<svg id="_Слой_1" data-name="Слой 1" xmlns="http://www.w3.org/2000/svg" viewBox="0 0 489.97 399.61">
  <defs>
    <style>
      .cls-1 {
        fill: #070000;
      }
    </style>
  </defs>
  <path class="cls-1" d="m290.16,399.61l-99.9-99.9,26.1-26.1,73.8,73.8,147.61-147.61L290.16,52.2l-73.8,73.8-26.1-26.1L290.16,0l199.81,199.81-199.81,199.81Zm25.51-119.87c-15.76,0-28.58-12.82-28.58-28.58s12.82-28.58,28.58-28.58,28.58,12.82,28.58,28.58-12.82,28.58-28.58,28.58Zm0-36.91c-4.6,0-8.33,3.74-8.33,8.33s3.74,8.33,8.33,8.33,8.34-3.74,8.34-8.33-3.74-8.33-8.34-8.33Zm-177.33,1.92c-32.21,0-58.42-26.21-58.42-58.42h36.91c0,11.86,9.65,21.51,21.51,21.51s21.51-9.65,21.51-21.51h36.91c0,32.21-26.21,58.42-58.42,58.42Zm-21.51-58.42h-36.91c0-11.86-9.65-21.51-21.51-21.51s-21.51,9.65-21.51,21.51H0c0-32.21,26.21-58.42,58.42-58.42s58.42,26.21,58.42,58.42Zm198.84-11.39c-15.76,0-28.58-12.82-28.58-28.58s12.82-28.58,28.58-28.58,28.58,12.82,28.58,28.58-12.82,28.58-28.58,28.58Zm0-36.91c-4.6,0-8.33,3.74-8.33,8.33s3.74,8.33,8.33,8.33,8.34-3.74,8.34-8.33-3.74-8.33-8.34-8.33Z"/>
</svg>