<?xml version="1.0" encoding="utf-8"?>
<!-- Generator: Adobe Illustrator 26.0.3, SVG Export Plug-In . SVG Version: 6.00 Build 0)  -->
<svg version="1.1" xmlns="http://www.w3.org/2000/svg" xmlns:xlink="http://www.w3.org/1999/xlink" x="0px" y="0px"
	 viewBox="0 0 2048 2048" style="enable-background:new 0 0 2048 2048;" xml:space="preserve">
<style type="text/css">
	.st0{fill:none;stroke:#000000;stroke-width:16;stroke-miterlimit:10;}
	.st1{display:none;}
	.st2{display:inline;fill:none;stroke:#7A7A7A;stroke-width:16;stroke-miterlimit:10;}
	.st3{display:inline;fill:none;stroke:#444444;stroke-width:16;stroke-miterlimit:10;}
	.st4{display:inline;fill:none;stroke:#070000;stroke-width:16;stroke-miterlimit:10;}
	.st5{display:none;fill:none;stroke:#070000;stroke-width:16;stroke-miterlimit:10;}
</style>
<symbol  id="Arrow" viewBox="-41.657 -61.657 83.314 123.314">
	<path class="st0" d="M0-53.657c-8.837,0-16,7.163-16,16s7.163,16,16,16s16,7.163,16,16s-7.163,16-16,16"/>
	<polyline class="st0" points="36,14.343 0,50.343 -36,14.343 	"/>
</symbol>
<g id="Layer_1" class="st1">
	<image style="display:inline;overflow:visible;" width="2048" height="2048" xlink:href="atlas_ref.png" >
	</image>
</g>
<g id="Layer_2">
	<g class="st1">
		<path class="st2" d="M640,928c-8.837,0-16-7.163-16-16s7.163-16,16-16s16-7.163,16-16s-7.163-16-16-16"/>
		<path class="st2" d="M640,968c24-24,48-48,72-72l-72-72l-72,72L640,968z"/>
		
			<rect x="560.804" y="816.804" transform="matrix(0.7071 -0.7071 0.7071 0.7071 -446.116 714.9807)" class="st2" width="158.392" height="158.392"/>
		<path class="st2" d="M688,848c10.667-10.667,21.333-21.333,32-32"/>
		<line class="st2" x1="688" y1="944" x2="720" y2="976"/>
		<line class="st2" x1="592" y1="944" x2="560" y2="976"/>
		<line class="st2" x1="592" y1="848" x2="560" y2="816"/>
	</g>
	<g class="st1">
		<path class="st3" d="M640,416c-8.837,0-16-7.163-16-16s7.163-16,16-16s16-7.163,16-16s-7.163-16-16-16"/>
		<polyline class="st3" points="676,348 640,312 604,348 		"/>
	</g>
	<g class="st1">
		
			<rect x="1840.232" y="47.85" transform="matrix(0.7071 0.7071 -0.7071 0.7071 653.3175 -1320.5659)" class="st4" width="160.981" height="160.981"/>
		<polygon class="st4" points="1920.723,203.9 1883.075,166.252 1845.427,128.604 1883.075,90.956 1920.723,53.309 1958.371,90.956 
			1996.018,128.604 1958.371,166.252 		"/>
		<path class="st4" d="M1920.723,93.695c9.567,0,17.323,7.756,17.323,17.323s-7.756,17.323-17.323,17.323 M1920.723,128.341
			c-9.567,0-17.323,7.756-17.323,17.323c0,9.567,7.756,17.323,17.323,17.323"/>
	</g>
	<g id="DetectorBulb">
		<line class="st0" x1="348.059" y1="862.059" x2="415.941" y2="929.941"/>
		<line class="st0" x1="348.059" y1="929.941" x2="415.941" y2="862.059"/>
		<circle class="st0" cx="382" cy="896" r="48"/>
		<path class="st0" d="M414,976c0-17.673-14.327-32-32-32c-17.673,0-32,14.327-32,32"/>
	</g>
	<g id="Bulb">
		<line class="st0" x1="94.059" y1="862.059" x2="161.941" y2="929.941"/>
		<line class="st0" x1="94.059" y1="929.941" x2="161.941" y2="862.059"/>
		<circle class="st0" cx="128" cy="896" r="48"/>
	</g>
	<g id="DirButton">
		<path class="st5" d="M1920,672c-8.837,0-16-7.163-16-16s7.163-16,16-16s16-7.163,16-16s-7.163-16-16-16"/>
		<polyline class="st0" points="1956,604 1920,568 1884,604 		"/>
		<circle class="st0" cx="1920" cy="640" r="20"/>
	</g>
	<g id="Output">
		<polyline class="st0" points="1700,568 1664,604 1628,568 		"/>
		<polyline class="st0" points="1700,712 1664,676 1628,712 		"/>
		<polyline class="st0" points="1592,676 1628,640 1592,604 		"/>
		<polyline class="st0" points="1736,676 1700,640 1736,604 		"/>
	</g>
	<g id="Input">
		<line class="st0" x1="1376" y1="640" x2="1440" y2="640"/>
		<polyline class="st0" points="1444,604 1408,568 1372,604 		"/>
		<line class="st0" x1="1408" y1="672" x2="1408" y2="608"/>
		<path class="st0" d="M1439,572c10.667-10.667,21.333-21.333,32-32"/>
		<line class="st0" x1="1380" y1="572" x2="1348" y2="540"/>
	</g>
	<g id="Button">
		<path class="st0" d="M1152,712c24-24,48-48,72-72l-72-72l-72,72L1152,712z"/>
		<circle class="st0" cx="1152" cy="640" r="20"/>
	</g>
	<g id="Random">
		<path class="st0" d="M879.5,706c26.51,0,48-21.49,48-48c0-19.882-16.118-36-36-36c-14.912,0-27,12.088-27,27
			c0,11.184,9.066,20.25,20.25,20.25c8.388,0,15.188-6.8,15.188-15.188c0-6.291-5.1-11.391-11.391-11.391"/>
		<polyline class="st0" points="932,604 896,568 860,604 		"/>
	</g>
	<g id="Flip-flop">
		<path class="st0" d="M640,672c-8.837,0-16-7.163-16-16s7.163-16,16-16s16-7.163,16-16s-7.163-16-16-16"/>
		<polyline class="st0" points="676,604 640,568 604,604 		"/>
		<rect x="624" y="696" class="st0" width="32" height="32"/>
	</g>
	<g id="Latch">
		<path class="st0" d="M370,672c-8.837,0-16-7.163-16-16s7.163-16,16-16s16-7.163,16-16s-7.163-16-16-16"/>
		<path class="st0" d="M398,688c-8.837,0-16-7.163-16-16s7.163-16,16-16s16-7.163,16-16s-7.163-16-16-16"/>
		<path class="st0" d="M384,648"/>
		<polyline class="st0" points="420,604 384,568 348,604 		"/>
		<rect x="368" y="712" class="st0" width="32" height="32"/>
	</g>
	<g id="XorGate">
		<polyline class="st0" points="164,604 128,568 92,604 		"/>
		<path class="st0" d="M128,672c-8.837,0-16-7.163-16-16s7.163-16,16-16s16-7.163,16-16s-7.163-16-16-16"/>
		<circle cx="160" cy="696" r="10.828"/>
		<circle cx="128" cy="696" r="10.828"/>
		<circle cx="96" cy="696" r="10.828"/>
	</g>
	<g id="Squid" class="st1">
		<path class="st4" d="M1781.739,416c-8.837,0-16-7.163-16-16s7.163-16,16-16s16-7.163,16-16s-7.163-16-16-16"/>
		<path class="st4" d="M1813.739,448c-8.837,0-16-7.163-16-16s7.163-16,16-16s16-7.163,16-16s-7.163-16-16-16"/>
		<polyline class="st4" points="1833.739,348 1797.739,312 1761.739,348 		"/>
	</g>
	<g id="AndGate">
		<path class="st0" d="M1906,416c-8.837,0-16-7.163-16-16s7.163-16,16-16s16-7.163,16-16s-7.163-16-16-16"/>
		<path class="st0" d="M1934,432c-8.837,0-16-7.163-16-16s7.163-16,16-16s16-7.163,16-16s-7.163-16-16-16"/>
		<path class="st0" d="M1920,392"/>
		<polyline class="st0" points="1956,348 1920,312 1884,348 		"/>
	</g>
	<g id="NotGate">
		<path class="st0" d="M1664,416c-8.837,0-16-7.163-16-16s7.163-16,16-16s16-7.163,16-16s-7.163-16-16-16"/>
		<polyline class="st0" points="1700,348 1664,312 1628,348 		"/>
		<line class="st0" x1="1640" y1="360" x2="1688" y2="408"/>
	</g>
	<g id="Arow_00000033358552252986804550000010591257883003042749_">
		<path class="st0" d="M1408,416c-8.837,0-16-7.163-16-16s7.163-16,16-16s16-7.163,16-16s-7.163-16-16-16"/>
		<polyline class="st0" points="1372,348 1408,312 1424,328 1448,328 1448,384 		"/>
	</g>
	<g id="BlueSide">
		<path d="M1174.172,345.486l-11.314-11.314l11.314-11.314l11.314,11.314L1174.172,345.486z"/>
		<path d="M1129.828,345.486l-11.314-11.314l11.314-11.314l11.314,11.314L1129.828,345.486z"/>
		<path d="M1152,323.314L1140.686,312L1152,300.686L1163.314,312L1152,323.314z"/>
		<path class="st0" d="M1152,416c-8.837,0-16-7.163-16-16s7.163-16,16-16s16-7.163,16-16s-7.163-16-16-16"/>
		<polyline class="st0" points="1116,308 1152,272 1224,344 1188,380 		"/>
	</g>
	<g id="DoubleUp">
		<path class="st0" d="M896,416c-8.837,0-16-7.163-16-16s7.163-16,16-16s16-7.163,16-16s-7.163-16-16-16"/>
		<polyline class="st0" points="932,348 896,312 860,348 		"/>
		<polyline class="st0" points="932,308 896,272 860,308 		"/>
	</g>
	<g id="Diagonal">
		<g>
			<path class="st0" d="M640,416c-8.837,0-16-7.163-16-16s7.163-16,16-16s16-7.163,16-16s-7.163-16-16-16"/>
		</g>
		<polyline class="st0" points="624,328 680,328 680,384 		"/>
	</g>
	<g id="BlueArrow">
		<path d="M406.172,345.486l-11.314-11.314l11.314-11.314l11.314,11.314L406.172,345.486z"/>
		<path d="M361.828,345.486l-11.314-11.314l11.314-11.314l11.314,11.314L361.828,345.486z"/>
		<path d="M384,323.314L372.686,312L384,300.686L395.314,312L384,323.314z"/>
		<polyline class="st0" points="420,308 384,272 348,308 		"/>
		<path class="st0" d="M384,416c-8.837,0-16-7.163-16-16s7.163-16,16-16s16-7.163,16-16s-7.163-16-16-16"/>
	</g>
	<g id="ImpulseBlock">
		<path class="st0" d="M128,400c8.837,0,16-7.163,16-16s-7.163-16-16-16"/>
		<path class="st0" d="M128,456c24-24,48-48,72-72l-72-72l-72,72L128,456z"/>
		<path class="st0" d="M176,336c10.667-10.667,21.333-21.333,32-32"/>
		<line class="st0" x1="176" y1="432" x2="208" y2="464"/>
		<line class="st0" x1="80" y1="432" x2="48" y2="464"/>
		<line class="st0" x1="80" y1="336" x2="48" y2="304"/>
	</g>
	<g id="Up-Sides">
		<polyline class="st0" points="1884,164 1848,128 1920,56 1992,128 1956,164 		"/>
		<path class="st0" d="M1920,160c-8.837,0-16-7.163-16-16s7.163-16,16-16s16-7.163,16-16s-7.163-16-16-16"/>
	</g>
	<g id="Up-Side">
		<polyline class="st0" points="1628,92 1664,56 1736,128 1700,164 		"/>
		<path class="st0" d="M1663.999,160c-8.837,0-16-7.163-16-16s7.163-16,16-16s16-7.163,16-16s-7.163-16-16-16"/>
	</g>
	<g id="Up-Down">
		<polyline class="st0" points="1444,92 1408,56 1372,92 		"/>
		<polyline class="st0" points="1444,164 1408,200 1372,164 		"/>
		<path class="st0" d="M1408,160c-8.837,0-16-7.163-16-16s7.163-16,16-16s16-7.163,16-16s-7.163-16-16-16"/>
	</g>
	<g id="Detector">
		<path class="st0" d="M1152,160c-8.837,0-16-7.163-16-16s7.163-16,16-16s16-7.163,16-16s-7.163-16-16-16"/>
		<polyline class="st0" points="1188,92 1152,56 1116,92 		"/>
		<path class="st0" d="M1184,192c0-17.673-14.327-32-32-32s-32,14.327-32,32"/>
	</g>
	<g id="DelayArrow">
		<path class="st0" d="M896,128c8.837,0,16-7.163,16-16s-7.163-16-16-16"/>
		<polyline class="st0" points="932,92 896,56 860,92 		"/>
		<circle cx="896.259" cy="160.019" r="10.828"/>
	</g>
	<g id="Blocker">
		<path class="st0" d="M640,160c-8.837,0-16-7.163-16-16s7.163-16,16-16s16-7.163,16-16s-7.163-16-16-16"/>
		<polyline class="st0" points="676,92 640,56 604,92 		"/>
		<line class="st0" x1="658" y1="42" x2="622" y2="6"/>
		<line class="st0" x1="658" y1="6" x2="622" y2="42"/>
	</g>
	<g id="SourceBlock">
		<path class="st0" d="M384,160c-8.837,0-16-7.163-16-16s7.163-16,16-16s16-7.163,16-16s-7.163-16-16-16"/>
		<path class="st0" d="M384,200c24-24,48-48,72-72l-72-72l-72,72L384,200z"/>
		<path class="st0" d="M432,80c10.667-10.667,21.333-21.333,32-32"/>
		<line class="st0" x1="432" y1="176" x2="464" y2="208"/>
		<line class="st0" x1="336" y1="176" x2="304" y2="208"/>
		<line class="st0" x1="336" y1="80" x2="304" y2="48"/>
	</g>
	
		<use xlink:href="#Arrow"  width="83.314" height="123.314" x="-41.657" y="-61.657" transform="matrix(1 0 0 -1 128 106.3431)" style="overflow:visible;"/>
	<g id="Wall">
		<line class="st0" x1="592" y1="848" x2="688" y2="944"/>
		<line class="st0" x1="592" y1="944" x2="688" y2="848"/>
		<rect x="592" y="848" class="st0" width="96" height="96"/>
	</g>
</g>
<g id="Слой_3">
	<g>
		<path class="st0" d="M128-96c-8.837,0-16-7.163-16-16s7.163-16,16-16s16-7.163,16-16s-7.163-16-16-16"/>
		<path class="st0" d="M128-56c24-24,48-48,72-72l-72-72l-72,72L128-56z"/>
		
			<rect x="48.804" y="-207.196" transform="matrix(0.7071 -0.7071 0.7071 0.7071 128 53.0193)" class="st0" width="158.392" height="158.392"/>
		<path class="st0" d="M176-176c10.667-10.667,21.333-21.333,32-32"/>
		<line class="st0" x1="176" y1="-80" x2="208" y2="-48"/>
		<line class="st0" x1="80" y1="-80" x2="48" y2="-48"/>
		<line class="st0" x1="80" y1="-176" x2="48" y2="-208"/>
	</g>
	<g>
		<path class="st0" d="M384-112c8.837,0,16-7.163,16-16s-7.163-16-16-16"/>
		<path class="st0" d="M384-56c24-24,48-48,72-72l-72-72l-72,72L384-56z"/>
		
			<rect x="304.804" y="-207.196" transform="matrix(0.7071 -0.7071 0.7071 0.7071 202.9807 234.0387)" class="st0" width="158.392" height="158.392"/>
		<path class="st0" d="M304-48l32-32l96-96c10.667-10.667,21.333-21.333,32-32"/>
		<polyline class="st0" points="304,-208 336,-176 348,-164 432,-80 464,-48 		"/>
	</g>
	<g>
		<path class="st0" d="M640-72c24-24,48-48,72-72l-72-72l-72,72L640-72z"/>
		
			<rect x="560.804" y="-223.196" transform="matrix(0.7071 -0.7071 0.7071 0.7071 289.275 410.3717)" class="st0" width="158.392" height="158.392"/>
	</g>
</g>
<g id="Слой_4">
	<g>
	</g>
</g>
</svg>
