<?xml version="1.0" encoding="UTF-8"?><svg id="Layer_1" xmlns="http://www.w3.org/2000/svg" xmlns:xlink="http://www.w3.org/1999/xlink" viewBox="0 0 89.23 20.05"><defs><style>.cls-1{fill:none;stroke:#000;stroke-linecap:round;stroke-linejoin:round;stroke-width:2px;}</style><symbol id="Eraser" viewBox="0 0 22.1 20.05"><path class="cls-1" d="m6.05,19.05L1.75,14.75c-1-1-1-2.5,0-3.4L11.35,1.75c1-1,2.5-1,3.4,0l5.6,5.6c1,1,1,2.5,0,3.4l-8.3,8.3m9,0H6.05m-2-10l9,9"/></symbol><symbol id="Mark" viewBox="0 0 21 18"><path class="cls-1" d="m7,8L1,14v3h9l3-3m7-5l-4.6,4.6c-.78.76-2.02.76-2.8,0l-5.2-5.2c-.76-.78-.76-2.02,0-2.8L12,1"/></symbol><symbol id="Pause" viewBox="0 0 14 18"><path class="cls-1" d="m10,1h2c.55,0,1,.45,1,1v14c0,.55-.45,1-1,1h-2c-.55,0-1-.45-1-1V2c0-.55.45-1,1-1ZM2,1h2c.55,0,1,.45,1,1v14c0,.55-.45,1-1,1h-2c-.55,0-1-.45-1-1V2c0-.55.45-1,1-1Z"/></symbol><symbol id="SendHorizontal" viewBox="0 0 21 20"><path class="cls-1" d="m1.72,1.05c-.25-.12-.55-.02-.67.23-.06.12-.07.27-.02.4l2.84,7.63c.17.45.17.95,0,1.4l-2.84,7.63c-.1.26.03.54.29.64.13.05.27.04.4-.02l18-8.5c.25-.12.36-.42.24-.67-.05-.1-.13-.19-.24-.24L1.72,1.05Zm2.29,8.95h16"/></symbol></defs><use width="21" height="18" transform="translate(0 2.02)" xlink:href="#Mark"/><use width="22.1" height="20.05" transform="translate(22.99)" xlink:href="#Eraser"/><use width="21" height="20" transform="translate(48.17 .02)" xlink:href="#SendHorizontal"/><use width="14" height="18" transform="translate(75.23 1.02)" xlink:href="#Pause"/></svg>