<svg id="Layer_2" data-name="Layer 2" xmlns="http://www.w3.org/2000/svg" xmlns:xlink="http://www.w3.org/1999/xlink" viewBox="0 0 1960.97 975.66"><defs><style>.cls-1{fill:none;stroke:#000;stroke-miterlimit:10;stroke-width:16px;}</style><symbol id="DetectorBulb" data-name="DetectorBulb" viewBox="0 0 112 136"><g id="DetectorBulb-3" data-name="DetectorBulb"><line class="cls-1" x1="22.06" y1="22.06" x2="89.94" y2="89.94"/><line class="cls-1" x1="22.06" y1="89.94" x2="89.94" y2="22.06"/><circle class="cls-1" cx="56" cy="56" r="48"/><path class="cls-1" d="M88,136a32,32,0,0,0-64,0"/></g></symbol><symbol id="Bulb" data-name="Bulb" viewBox="0 0 112 112"><g id="Bulb-3" data-name="Bulb"><line class="cls-1" x1="22.06" y1="22.06" x2="89.94" y2="89.94"/><line class="cls-1" x1="22.06" y1="89.94" x2="89.94" y2="22.06"/><circle class="cls-1" cx="56" cy="56" r="48"/></g></symbol><symbol id="DirButton" data-name="DirButton" viewBox="0 0 83.31 123.31"><g id="DirButton-3" data-name="DirButton"><polyline class="cls-1" points="77.66 47.31 41.66 11.31 5.66 47.31"/><circle class="cls-1" cx="41.66" cy="83.31" r="20"/></g></symbol><symbol id="Output" data-name="Output" viewBox="0 0 155.31 155.31"><g id="Output-3" data-name="Output"><polyline class="cls-1" points="113.66 5.66 77.66 41.66 41.66 5.66"/><polyline class="cls-1" points="113.66 149.66 77.66 113.66 41.66 149.66"/><polyline class="cls-1" points="5.66 113.66 41.66 77.66 5.66 41.66"/><polyline class="cls-1" points="149.66 113.66 113.66 77.66 149.66 41.66"/></g></symbol><symbol id="Input" data-name="Input" viewBox="0 0 134.31 137.66"><g id="Input-3" data-name="Input"><line class="cls-1" x1="33.66" y1="105.66" x2="97.66" y2="105.66"/><polyline class="cls-1" points="101.66 69.66 65.66 33.66 29.66 69.66"/><line class="cls-1" x1="65.66" y1="137.66" x2="65.66" y2="73.66"/><path class="cls-1" d="M96.66,37.66l32-32"/><line class="cls-1" x1="37.66" y1="37.66" x2="5.66" y2="5.66"/></g></symbol><symbol id="Button" data-name="Button" viewBox="0 0 166.63 166.63"><g id="Button-3" data-name="Button"><path class="cls-1" d="M83.31,155.31l72-72-72-72-72,72Z"/><circle class="cls-1" cx="83.31" cy="83.31" r="20"/></g></symbol><symbol id="Random" data-name="Random" viewBox="0 0 83.31 157.31"><g id="Random-3" data-name="Random"><path class="cls-1" d="M25.16,149.31a48,48,0,0,0,48-48,36,36,0,0,0-36-36,27,27,0,0,0-27,27,20.24,20.24,0,0,0,20.25,20.25A15.18,15.18,0,0,0,45.59,97.38,11.39,11.39,0,0,0,34.2,86"/><polyline class="cls-1" points="77.66 47.31 41.66 11.31 5.66 47.31"/></g></symbol><symbol id="Flip-flop" data-name="Flip-flop" viewBox="0 0 83.31 179.31"><g id="Flip-flop-3" data-name="Flip-flop"><path class="cls-1" d="M41.66,115.31a16,16,0,0,1,0-32,16,16,0,0,0,0-32"/><polyline class="cls-1" points="77.66 47.31 41.66 11.31 5.66 47.31"/><rect class="cls-1" x="25.66" y="139.31" width="32" height="32"/></g></symbol><symbol id="Latch" data-name="Latch" viewBox="0 0 83.31 195.31"><g id="Latch-3" data-name="Latch"><path class="cls-1" d="M27.66,115.31a16,16,0,0,1,0-32,16,16,0,0,0,0-32"/><path class="cls-1" d="M55.66,131.31a16,16,0,0,1,0-32,16,16,0,0,0,0-32"/><path class="cls-1" d="M41.66,91.31"/><polyline class="cls-1" points="77.66 47.31 41.66 11.31 5.66 47.31"/><rect class="cls-1" x="25.66" y="155.31" width="32" height="32"/></g></symbol><symbol id="XorGate" data-name="XorGate" viewBox="0 0 85.66 150.14"><g id="XorGate-3" data-name="XorGate"><polyline class="cls-1" points="78.83 47.31 42.83 11.31 6.83 47.31"/><path class="cls-1" d="M42.83,115.31a16,16,0,1,1,0-32,16,16,0,0,0,0-32"/><circle cx="74.83" cy="139.31" r="10.83"/><circle cx="42.83" cy="139.31" r="10.83"/><circle cx="10.83" cy="139.31" r="10.83"/></g></symbol><symbol id="AndGate" data-name="AndGate" viewBox="0 0 83.31 139.31"><g id="AndGate-3" data-name="AndGate"><path class="cls-1" d="M27.66,115.31a16,16,0,0,1,0-32,16,16,0,0,0,0-32"/><path class="cls-1" d="M55.66,131.31a16,16,0,0,1,0-32,16,16,0,0,0,0-32"/><path class="cls-1" d="M41.66,91.31"/><polyline class="cls-1" points="77.66 47.31 41.66 11.31 5.66 47.31"/></g></symbol><symbol id="NotGate" data-name="NotGate" viewBox="0 0 83.31 123.31"><g id="NotGate-3" data-name="NotGate"><path class="cls-1" d="M41.66,115.31a16,16,0,0,1,0-32,16,16,0,0,0,0-32"/><polyline class="cls-1" points="77.66 47.31 41.66 11.31 5.66 47.31"/><line class="cls-1" x1="17.66" y1="59.31" x2="65.66" y2="107.31"/></g></symbol><symbol id="ForwardDiagArrow" data-name="ForwardDiagArrow" viewBox="0 0 89.66 123.31"><g id="ForwardDiagArrow-3" data-name="ForwardDiagArrow"><path class="cls-1" d="M41.66,115.31a16,16,0,0,1,0-32,16,16,0,0,0,0-32"/><polyline class="cls-1" points="5.66 47.31 41.66 11.31 57.66 27.31 81.66 27.31 81.66 83.31"/></g></symbol><symbol id="BlueSide" data-name="BlueSide" viewBox="0 0 124.97 163.31"><g id="BlueSide-3" data-name="BlueSide"><path d="M63.83,84.8,52.52,73.49,63.83,62.17,75.14,73.49Z"/><path d="M19.48,84.8,8.17,73.49,19.48,62.17,30.8,73.49Z"/><path d="M41.66,62.63,30.34,51.31,41.66,40,53,51.31Z"/><path class="cls-1" d="M41.66,155.31a16,16,0,0,1,0-32,16,16,0,0,0,0-32"/><polyline class="cls-1" points="5.66 47.31 41.66 11.31 113.66 83.31 77.66 119.31"/></g></symbol><symbol id="DoubleUp" data-name="DoubleUp" viewBox="0 0 83.31 163.31"><g id="DoubleUp-3" data-name="DoubleUp"><path class="cls-1" d="M41.66,155.31a16,16,0,0,1,0-32,16,16,0,0,0,0-32"/><polyline class="cls-1" points="77.66 87.31 41.66 51.31 5.66 87.31"/><polyline class="cls-1" points="77.66 47.31 41.66 11.31 5.66 47.31"/></g></symbol><symbol id="Diagonal" data-name="Diagonal" viewBox="0 0 72 104"><g id="Diagonal-3" data-name="Diagonal"><path class="cls-1" d="M24,96a16,16,0,0,1,0-32,16,16,0,0,0,0-32"/><polyline class="cls-1" points="8 8 64 8 64 64"/></g></symbol><symbol id="BlueArrow" data-name="BlueArrow" viewBox="0 0 83.31 163.31"><g id="BlueArrow-3" data-name="BlueArrow"><path d="M63.83,84.8,52.52,73.49,63.83,62.17,75.14,73.49Z"/><path d="M19.48,84.8,8.17,73.49,19.48,62.17,30.8,73.49Z"/><path d="M41.66,62.63,30.34,51.31,41.66,40,53,51.31Z"/><polyline class="cls-1" points="77.66 47.31 41.66 11.31 5.66 47.31"/><path class="cls-1" d="M41.66,155.31a16,16,0,0,1,0-32,16,16,0,0,0,0-32"/></g></symbol><symbol id="ImpulseBlock" data-name="ImpulseBlock" viewBox="0 0 171.31 171.31"><g id="ImpulseBlock-3" data-name="ImpulseBlock"><path class="cls-1" d="M85.66,101.66a16,16,0,0,0,0-32"/><path class="cls-1" d="M85.66,157.66l72-72-72-72-72,72Z"/><path class="cls-1" d="M133.66,37.66l32-32"/><line class="cls-1" x1="133.66" y1="133.66" x2="165.66" y2="165.66"/><line class="cls-1" x1="37.66" y1="133.66" x2="5.66" y2="165.66"/><line class="cls-1" x1="37.66" y1="37.66" x2="5.66" y2="5.66"/></g></symbol><symbol id="Up-Sides" data-name="Up-Sides" viewBox="0 0 166.63 124.97"><g id="Up-Sides-3" data-name="Up-Sides"><polyline class="cls-1" points="47.31 119.31 11.31 83.31 83.31 11.31 155.31 83.31 119.31 119.31"/><path class="cls-1" d="M83.31,115.31a16,16,0,0,1,0-32,16,16,0,0,0,0-32"/></g></symbol><symbol id="Up-Side" data-name="Up-Side" viewBox="0 0 124.97 124.97"><g id="Up-Side-3" data-name="Up-Side"><polyline class="cls-1" points="5.66 47.31 41.66 11.31 113.66 83.31 77.66 119.31"/><path class="cls-1" d="M41.66,115.31a16,16,0,0,1,0-32,16,16,0,0,0,0-32"/></g></symbol><symbol id="Up-Down" data-name="Up-Down" viewBox="0 0 83.31 166.63"><g id="Up-Down-3" data-name="Up-Down"><polyline class="cls-1" points="77.66 47.31 41.66 11.31 5.66 47.31"/><polyline class="cls-1" points="77.66 119.31 41.66 155.31 5.66 119.31"/><path class="cls-1" d="M41.66,115.31a16,16,0,0,1,0-32,16,16,0,0,0,0-32"/></g></symbol><symbol id="Detector" data-name="Detector" viewBox="0 0 83.31 147.31"><g id="Detector-3" data-name="Detector"><path class="cls-1" d="M41.66,115.31a16,16,0,0,1,0-32,16,16,0,0,0,0-32"/><polyline class="cls-1" points="77.66 47.31 41.66 11.31 5.66 47.31"/><path class="cls-1" d="M73.66,147.31a32,32,0,0,0-64,0"/></g></symbol><symbol id="DelayArrow" data-name="DelayArrow" viewBox="0 0 83.31 126.16"><g id="DelayArrow-3" data-name="DelayArrow"><path class="cls-1" d="M41.66,83.31a16,16,0,0,0,0-32"/><polyline class="cls-1" points="77.66 47.31 41.66 11.31 5.66 47.31"/><circle cx="41.92" cy="115.33" r="10.83"/></g></symbol><symbol id="Blocker" data-name="Blocker" viewBox="0 0 83.31 167.66"><g id="Blocker-3" data-name="Blocker"><path class="cls-1" d="M41.66,159.66a16,16,0,0,1,0-32,16,16,0,0,0,0-32"/><polyline class="cls-1" points="77.66 91.66 41.66 55.66 5.66 91.66"/><line class="cls-1" x1="59.66" y1="41.66" x2="23.66" y2="5.66"/><line class="cls-1" x1="59.66" y1="5.66" x2="23.66" y2="41.66"/></g></symbol><symbol id="SourceBlock" data-name="SourceBlock" viewBox="0 0 171.31 171.31"><g id="SourceBlock-3" data-name="SourceBlock"><path class="cls-1" d="M85.66,117.66a16,16,0,0,1,0-32,16,16,0,0,0,0-32"/><path class="cls-1" d="M85.66,157.66l72-72-72-72-72,72Z"/><path class="cls-1" d="M133.66,37.66l32-32"/><line class="cls-1" x1="133.66" y1="133.66" x2="165.66" y2="165.66"/><line class="cls-1" x1="37.66" y1="133.66" x2="5.66" y2="165.66"/><line class="cls-1" x1="37.66" y1="37.66" x2="5.66" y2="5.66"/></g></symbol><symbol id="Arrow" data-name="Arrow" viewBox="0 0 83.31 123.31"><path class="cls-1" d="M41.66,115.31a16,16,0,0,1,0-32,16,16,0,0,0,0-32"/><polyline class="cls-1" points="77.66 47.31 41.66 11.31 5.66 47.31"/></symbol><symbol id="Wall" data-name="Wall" viewBox="0 0 112 112"><line class="cls-1" x1="8" y1="8" x2="104" y2="104"/><line class="cls-1" x1="8" y1="104" x2="104" y2="8"/><rect class="cls-1" x="8" y="8" width="96" height="96"/></symbol></defs><use width="112" height="136" transform="translate(283.66 839.66)" xlink:href="#DetectorBulb"/><use width="112" height="112" transform="translate(29.66 839.66)" xlink:href="#Bulb"/><use width="83.31" height="123.31" transform="translate(1836 556.34)" xlink:href="#DirButton"/><use width="155.31" height="155.31" transform="translate(1544 562)" xlink:href="#Output"/><use width="134.31" height="137.66" transform="translate(1300 534)" xlink:href="#Input"/><use width="166.63" height="166.63" transform="translate(1026.34 556.34)" xlink:href="#Button"/><use width="83.31" height="157.31" transform="translate(812 556.34)" xlink:href="#Random"/><use width="83.31" height="179.31" transform="translate(556 556.34)" xlink:href="#Flip-flop"/><use width="83.31" height="195.31" transform="translate(300 556.34)" xlink:href="#Latch"/><use width="85.66" height="150.14" transform="translate(42.83 556.34)" xlink:href="#XorGate"/><use width="83.31" height="139.31" transform="translate(1836 300.34)" xlink:href="#AndGate"/><use width="83.31" height="123.31" transform="translate(1580 300.34)" xlink:href="#NotGate"/><use width="89.66" height="123.31" transform="translate(1324 300.34)" xlink:href="#ForwardDiagArrow"/><use width="124.97" height="163.31" transform="translate(1068 260.34)" xlink:href="#BlueSide"/><use width="83.31" height="163.31" transform="translate(812 260.34)" xlink:href="#DoubleUp"/><use width="72" height="104" transform="translate(573.66 319.66)" xlink:href="#Diagonal"/><use width="83.31" height="163.31" transform="translate(300 260.34)" xlink:href="#BlueArrow"/><use width="171.31" height="171.31" transform="translate(0 298)" xlink:href="#ImpulseBlock"/><use width="166.63" height="124.97" transform="translate(1794.34 44.34)" xlink:href="#Up-Sides"/><use width="124.97" height="124.97" transform="translate(1580 44.34)" xlink:href="#Up-Side"/><use width="83.31" height="166.63" transform="translate(1324 44.34)" xlink:href="#Up-Down"/><use width="83.31" height="147.31" transform="translate(1068 44.34)" xlink:href="#Detector"/><use width="83.31" height="126.16" transform="translate(812 44.34)" xlink:href="#DelayArrow"/><use width="83.31" height="167.66" transform="translate(556)" xlink:href="#Blocker"/><use width="171.31" height="171.31" transform="translate(256 42)" xlink:href="#SourceBlock"/><use width="83.31" height="123.31" transform="translate(44 44.34)" xlink:href="#Arrow"/><use width="112" height="112" transform="translate(541.66 839.66)" xlink:href="#Wall"/></svg>