<?xml version="1.0" encoding="UTF-8"?><svg id="Layer_2" xmlns="http://www.w3.org/2000/svg" xmlns:xlink="http://www.w3.org/1999/xlink" viewBox="0 0 2048 2048"><defs><style>.cls-1{fill:none;stroke:#000;stroke-miterlimit:10;stroke-width:16px;}.cls-2{stroke-width:0px;}</style><symbol id="AndGate" viewBox="0 0 83.31 139.31"><g id="AndGate-2"><path class="cls-1" d="m27.66,115.31c-8.84,0-16-7.16-16-16s7.16-16,16-16,16-7.16,16-16-7.16-16-16-16"/><path class="cls-1" d="m55.66,131.31c-8.84,0-16-7.16-16-16s7.16-16,16-16,16-7.16,16-16-7.16-16-16-16"/><path class="cls-1" d="m41.66,91.31"/><polyline class="cls-1" points="77.66 47.31 41.66 11.31 5.66 47.31"/></g></symbol><symbol id="Arrow" viewBox="0 0 83.31 123.31"><path class="cls-1" d="m41.66,115.31c-8.84,0-16-7.16-16-16s7.16-16,16-16,16-7.16,16-16-7.16-16-16-16"/><polyline class="cls-1" points="77.66 47.31 41.66 11.31 5.66 47.31"/></symbol><symbol id="Blocker" viewBox="0 0 83.31 167.66"><g id="Blocker-2"><path class="cls-1" d="m41.66,159.66c-8.84,0-16-7.16-16-16s7.16-16,16-16,16-7.16,16-16-7.16-16-16-16"/><polyline class="cls-1" points="77.66 91.66 41.66 55.66 5.66 91.66"/><line class="cls-1" x1="59.66" y1="41.66" x2="23.66" y2="5.66"/><line class="cls-1" x1="59.66" y1="5.66" x2="23.66" y2="41.66"/></g></symbol><symbol id="BlueSide" viewBox="0 0 124.97 163.31"><g id="BlueSide-2"><path class="cls-2" d="m63.83,84.8l-11.31-11.31,11.31-11.31,11.31,11.31-11.31,11.31Z"/><path class="cls-2" d="m19.48,84.8l-11.31-11.31,11.31-11.31,11.31,11.31-11.31,11.31Z"/><path class="cls-2" d="m41.66,62.63l-11.31-11.31,11.31-11.31,11.31,11.31-11.31,11.31Z"/><path class="cls-1" d="m41.66,155.31c-8.84,0-16-7.16-16-16s7.16-16,16-16,16-7.16,16-16-7.16-16-16-16"/><polyline class="cls-1" points="5.66 47.31 41.66 11.31 113.66 83.31 77.66 119.31"/></g></symbol><symbol id="Bulb" viewBox="0 0 112 112"><g id="Bulb-2"><line class="cls-1" x1="22.06" y1="22.06" x2="89.94" y2="89.94"/><line class="cls-1" x1="22.06" y1="89.94" x2="89.94" y2="22.06"/><circle class="cls-1" cx="56" cy="56" r="48"/></g></symbol><symbol id="Button" viewBox="0 0 166.63 166.63"><g id="Button-2"><path class="cls-1" d="m83.31,155.31l72-72L83.31,11.31,11.31,83.31l72,72Z"/><circle class="cls-1" cx="83.31" cy="83.31" r="20"/></g></symbol><symbol id="DelayArrow" viewBox="0 0 83.31 126.16"><g id="DelayArrow-2"><path class="cls-1" d="m41.66,83.31c8.84,0,16-7.16,16-16s-7.16-16-16-16"/><polyline class="cls-1" points="77.66 47.31 41.66 11.31 5.66 47.31"/><circle class="cls-2" cx="41.92" cy="115.33" r="10.83"/></g></symbol><symbol id="Detector" viewBox="0 0 83.31 147.31"><g id="Detector-2"><path class="cls-1" d="m41.66,115.31c-8.84,0-16-7.16-16-16s7.16-16,16-16,16-7.16,16-16-7.16-16-16-16"/><polyline class="cls-1" points="77.66 47.31 41.66 11.31 5.66 47.31"/><path class="cls-1" d="m73.66,147.31c0-17.67-14.33-32-32-32s-32,14.33-32,32"/></g></symbol><symbol id="DetectorBulb" viewBox="0 0 112 136"><g id="DetectorBulb-2"><line class="cls-1" x1="22.06" y1="22.06" x2="89.94" y2="89.94"/><line class="cls-1" x1="22.06" y1="89.94" x2="89.94" y2="22.06"/><circle class="cls-1" cx="56" cy="56" r="48"/><path class="cls-1" d="m88,136c0-17.67-14.33-32-32-32s-32,14.33-32,32"/></g></symbol><symbol id="Diagonal" viewBox="0 0 72 104"><g id="Diagonal-2"><path class="cls-1" d="m24,96c-8.84,0-16-7.16-16-16s7.16-16,16-16,16-7.16,16-16-7.16-16-16-16"/><polyline class="cls-1" points="8 8 64 8 64 64"/></g></symbol><symbol id="DirButton" viewBox="0 0 83.31 123.31"><g id="DirButton-2"><polyline class="cls-1" points="77.66 47.31 41.66 11.31 5.66 47.31"/><circle class="cls-1" cx="41.66" cy="83.31" r="20"/></g></symbol><symbol id="DoubleUp" viewBox="0 0 83.31 163.31"><g id="DoubleUp-2"><path class="cls-1" d="m41.66,155.31c-8.84,0-16-7.16-16-16s7.16-16,16-16,16-7.16,16-16-7.16-16-16-16"/><polyline class="cls-1" points="77.66 87.31 41.66 51.31 5.66 87.31"/><polyline class="cls-1" points="77.66 47.31 41.66 11.31 5.66 47.31"/></g></symbol><symbol id="Flip-flop" viewBox="0 0 83.31 179.31"><g id="Flip-flop-2"><path class="cls-1" d="m41.66,115.31c-8.84,0-16-7.16-16-16s7.16-16,16-16,16-7.16,16-16-7.16-16-16-16"/><polyline class="cls-1" points="77.66 47.31 41.66 11.31 5.66 47.31"/><rect class="cls-1" x="25.66" y="139.31" width="32" height="32"/></g></symbol><symbol id="ForwardDiagArrow" viewBox="0 0 89.66 123.31"><g id="ForwardDiagArrow-2"><path class="cls-1" d="m41.66,115.31c-8.84,0-16-7.16-16-16s7.16-16,16-16,16-7.16,16-16-7.16-16-16-16"/><polyline class="cls-1" points="5.66 47.31 41.66 11.31 57.66 27.31 81.66 27.31 81.66 83.31"/></g></symbol><symbol id="ImpulseBlock" viewBox="0 0 171.31 171.31"><g id="ImpulseBlock-2"><path class="cls-1" d="m85.66,101.66c8.84,0,16-7.16,16-16s-7.16-16-16-16"/><path class="cls-1" d="m85.66,157.66l72-72L85.66,13.66,13.66,85.66l72,72Z"/><path class="cls-1" d="m133.66,37.66L165.66,5.66"/><line class="cls-1" x1="133.66" y1="133.66" x2="165.66" y2="165.66"/><line class="cls-1" x1="37.66" y1="133.66" x2="5.66" y2="165.66"/><line class="cls-1" x1="37.66" y1="37.66" x2="5.66" y2="5.66"/></g></symbol><symbol id="Input" viewBox="0 0 134.31 137.66"><g id="Input-2"><line class="cls-1" x1="33.66" y1="105.66" x2="97.66" y2="105.66"/><polyline class="cls-1" points="101.66 69.66 65.66 33.66 29.66 69.66"/><line class="cls-1" x1="65.66" y1="137.66" x2="65.66" y2="73.66"/><path class="cls-1" d="m96.66,37.66L128.66,5.66"/><line class="cls-1" x1="37.66" y1="37.66" x2="5.66" y2="5.66"/></g></symbol><symbol id="Latch" viewBox="0 0 83.31 195.31"><g id="Latch-2"><path class="cls-1" d="m27.66,115.31c-8.84,0-16-7.16-16-16s7.16-16,16-16,16-7.16,16-16-7.16-16-16-16"/><path class="cls-1" d="m55.66,131.31c-8.84,0-16-7.16-16-16s7.16-16,16-16,16-7.16,16-16-7.16-16-16-16"/><path class="cls-1" d="m41.66,91.31"/><polyline class="cls-1" points="77.66 47.31 41.66 11.31 5.66 47.31"/><rect class="cls-1" x="25.66" y="155.31" width="32" height="32"/></g></symbol><symbol id="NotGate" viewBox="0 0 83.31 123.31"><g id="NotGate-2"><path class="cls-1" d="m41.66,115.31c-8.84,0-16-7.16-16-16s7.16-16,16-16,16-7.16,16-16-7.16-16-16-16"/><polyline class="cls-1" points="77.66 47.31 41.66 11.31 5.66 47.31"/><line class="cls-1" x1="17.66" y1="59.31" x2="65.66" y2="107.31"/></g></symbol><symbol id="Output" viewBox="0 0 155.31 155.31"><g id="Output-2"><polyline class="cls-1" points="113.66 5.66 77.66 41.66 41.66 5.66"/><polyline class="cls-1" points="113.66 149.66 77.66 113.66 41.66 149.66"/><polyline class="cls-1" points="5.66 113.66 41.66 77.66 5.66 41.66"/><polyline class="cls-1" points="149.66 113.66 113.66 77.66 149.66 41.66"/></g></symbol><symbol id="Random" viewBox="0 0 83.31 157.31"><g id="Random-2"><path class="cls-1" d="m25.16,149.31c26.51,0,48-21.49,48-48,0-19.88-16.12-36-36-36-14.91,0-27,12.09-27,27,0,11.18,9.07,20.25,20.25,20.25,8.39,0,15.19-6.8,15.19-15.19,0-6.29-5.1-11.39-11.39-11.39"/><polyline class="cls-1" points="77.66 47.31 41.66 11.31 5.66 47.31"/></g></symbol><symbol id="SourceBlock" viewBox="0 0 171.31 171.31"><g id="SourceBlock-2"><path class="cls-1" d="m85.66,117.66c-8.84,0-16-7.16-16-16s7.16-16,16-16,16-7.16,16-16-7.16-16-16-16"/><path class="cls-1" d="m85.66,157.66l72-72L85.66,13.66,13.66,85.66l72,72Z"/><path class="cls-1" d="m133.66,37.66c10.67-10.67,21.33-21.33,32-32"/><line class="cls-1" x1="133.66" y1="133.66" x2="165.66" y2="165.66"/><line class="cls-1" x1="37.66" y1="133.66" x2="5.66" y2="165.66"/><line class="cls-1" x1="37.66" y1="37.66" x2="5.66" y2="5.66"/></g></symbol><symbol id="ThroughArrow" viewBox="0 0 83.31 163.31"><path class="cls-2" d="m63.83,84.8l-11.31-11.31,11.31-11.31,11.31,11.31-11.31,11.31Z"/><path class="cls-2" d="m19.48,84.8l-11.31-11.31,11.31-11.31,11.31,11.31-11.31,11.31Z"/><path class="cls-2" d="m41.66,62.63l-11.31-11.31,11.31-11.31,11.31,11.31-11.31,11.31Z"/><polyline class="cls-1" points="77.66 47.31 41.66 11.31 5.66 47.31"/><path class="cls-1" d="m41.66,155.31c-8.84,0-16-7.16-16-16s7.16-16,16-16,16-7.16,16-16-7.16-16-16-16"/></symbol><symbol id="Up-Down" viewBox="0 0 83.31 166.63"><g id="Up-Down-2"><polyline class="cls-1" points="77.66 47.31 41.66 11.31 5.66 47.31"/><polyline class="cls-1" points="77.66 119.31 41.66 155.31 5.66 119.31"/><path class="cls-1" d="m41.66,115.31c-8.84,0-16-7.16-16-16s7.16-16,16-16,16-7.16,16-16-7.16-16-16-16"/></g></symbol><symbol id="Up-Side" viewBox="0 0 124.97 124.97"><g id="Up-Side-2"><polyline class="cls-1" points="5.66 47.31 41.66 11.31 113.66 83.31 77.66 119.31"/><path class="cls-1" d="m41.66,115.31c-8.84,0-16-7.16-16-16s7.16-16,16-16,16-7.16,16-16-7.16-16-16-16"/></g></symbol><symbol id="Up-Sides" viewBox="0 0 166.63 124.97"><g id="Up-Sides-2"><polyline class="cls-1" points="47.31 119.31 11.31 83.31 83.31 11.31 155.31 83.31 119.31 119.31"/><path class="cls-1" d="m83.31,115.31c-8.84,0-16-7.16-16-16s7.16-16,16-16,16-7.16,16-16-7.16-16-16-16"/></g></symbol><symbol id="Wall" viewBox="0 0 112 112"><line class="cls-1" x1="8" y1="8" x2="104" y2="104"/><line class="cls-1" x1="8" y1="104" x2="104" y2="8"/><rect class="cls-1" x="8" y="8" width="96" height="96"/></symbol><symbol id="XorGate" viewBox="0 0 85.66 150.14"><g id="XorGate-2"><polyline class="cls-1" points="78.83 47.31 42.83 11.31 6.83 47.31"/><path class="cls-1" d="m42.83,115.31c-8.84,0-16-7.16-16-16s7.16-16,16-16,16-7.16,16-16-7.16-16-16-16"/><circle class="cls-2" cx="74.83" cy="139.31" r="10.83"/><circle class="cls-2" cx="42.83" cy="139.31" r="10.83"/><circle class="cls-2" cx="10.83" cy="139.31" r="10.83"/></g></symbol></defs><use width="112" height="136" transform="translate(326 840)" xlink:href="#DetectorBulb"/><use width="112" height="112" transform="translate(72 840)" xlink:href="#Bulb"/><use width="83.31" height="123.31" transform="translate(1878.34 556.69)" xlink:href="#DirButton"/><use width="155.31" height="155.31" transform="translate(1586.34 562.34)" xlink:href="#Output"/><use width="134.31" height="137.66" transform="translate(1342.34 534.34)" xlink:href="#Input"/><use width="166.63" height="166.63" transform="translate(1068.69 556.69)" xlink:href="#Button"/><use width="83.31" height="157.31" transform="translate(854.34 556.69)" xlink:href="#Random"/><use width="83.31" height="179.31" transform="translate(598.34 556.69)" xlink:href="#Flip-flop"/><use width="83.31" height="195.31" transform="translate(342.34 556.69)" xlink:href="#Latch"/><use width="85.66" height="150.14" transform="translate(85.17 556.69)" xlink:href="#XorGate"/><use width="83.31" height="139.31" transform="translate(1878.34 300.69)" xlink:href="#AndGate"/><use width="83.31" height="123.31" transform="translate(1622.34 300.69)" xlink:href="#NotGate"/><use width="89.66" height="123.31" transform="translate(1366.34 300.69)" xlink:href="#ForwardDiagArrow"/><use width="124.97" height="163.31" transform="translate(1110.34 260.69)" xlink:href="#BlueSide"/><use width="83.31" height="163.31" transform="translate(854.34 260.69)" xlink:href="#DoubleUp"/><use width="72" height="104" transform="translate(616 320)" xlink:href="#Diagonal"/><use id="ThroughArrow-2" width="83.31" height="163.31" transform="translate(342.34 260.69)" xlink:href="#ThroughArrow"/><use width="171.31" height="171.31" transform="translate(42.34 298.34)" xlink:href="#ImpulseBlock"/><use width="166.63" height="124.97" transform="translate(1836.69 44.69)" xlink:href="#Up-Sides"/><use width="124.97" height="124.97" transform="translate(1622.34 44.69)" xlink:href="#Up-Side"/><use width="83.31" height="166.63" transform="translate(1366.34 44.69)" xlink:href="#Up-Down"/><use width="83.31" height="147.31" transform="translate(1110.34 44.69)" xlink:href="#Detector"/><use width="83.31" height="126.16" transform="translate(854.34 44.69)" xlink:href="#DelayArrow"/><use width="83.31" height="167.66" transform="translate(598.34 .34)" xlink:href="#Blocker"/><use width="171.31" height="171.31" transform="translate(298.34 42.34)" xlink:href="#SourceBlock"/><use width="83.31" height="123.31" transform="translate(86.34 44.69)" xlink:href="#Arrow"/><use width="112" height="112" transform="translate(584 840)" xlink:href="#Wall"/></svg>