<?xml version="1.0" encoding="utf-8"?>
<!-- Generator: Adobe Illustrator 28.0.0, SVG Export Plug-In . SVG Version: 6.00 Build 0)  -->
<svg version="1.1" id="Layer_1" xmlns="http://www.w3.org/2000/svg" xmlns:xlink="http://www.w3.org/1999/xlink" x="0px" y="0px"
	 viewBox="0 0 192 192" style="enable-background:new 0 0 192 192;" xml:space="preserve">
<symbol  id="Eraser" viewBox="-11.1 -10 22.1 20.1">
	<path style="fill:none;stroke:#000000;stroke-width:2;stroke-linecap:round;stroke-linejoin:round;" d="M-5-9l-4.3,4.3
		c-1,1-1,2.5,0,3.4l9.6,9.6c1,1,2.5,1,3.4,0l5.6-5.6c1-1,1-2.5,0-3.4L1-9 M10-9H-5 M-7,1l9-9"/>
</symbol>
<symbol  id="Mark" viewBox="-10.5 -9 21 18">
	<path style="fill:none;stroke:#000000;stroke-width:2;stroke-linecap:round;stroke-linejoin:round;" d="M-3.5,1l-6-6v-3h9l3,3
		 M9.5,0L4.9-4.6c-0.8-0.8-2-0.8-2.8,0l-5.2,5.2c-0.8,0.8-0.8,2,0,2.8L1.5,8"/>
</symbol>
<symbol  id="SendHorizontal" viewBox="-10.6 -10 21.1 19.9">
	<path style="fill:none;stroke:#000000;stroke-width:2;stroke-linecap:round;stroke-linejoin:round;" d="M-8.8,8.9
		C-9,9-9.3,8.9-9.5,8.6c-0.1-0.1-0.1-0.3,0-0.4l2.8-7.6c0.2-0.5,0.2-0.9,0-1.4l-2.8-7.6c-0.1-0.3,0-0.5,0.3-0.6c0.1,0,0.3,0,0.4,0
		l18,8.5c0.3,0.1,0.4,0.4,0.3,0.6c0,0.1-0.1,0.2-0.2,0.2L-8.8,8.9z M-6.5-0.1h16"/>
</symbol>
<g>
	<defs>
		<rect id="SVGID_1_" width="24" height="24"/>
	</defs>
	<clipPath id="SVGID_00000072996421800880794430000017070440627765017784_">
		<use xlink:href="#SVGID_1_"  style="overflow:visible;"/>
	</clipPath>
	<g style="clip-path:url(#SVGID_00000072996421800880794430000017070440627765017784_);">
		
			<use xlink:href="#Mark"  width="21" height="18" x="-10.5" y="-9" transform="matrix(1 0 0 -1 12 12)" style="overflow:visible;"/>
	</g>
</g>
<g>
	<defs>
		<rect id="SVGID_00000025419131838775668130000013203649961007118258_" x="23.9" width="24" height="24"/>
	</defs>
	<clipPath id="SVGID_00000173873956093230658710000001797250227330911408_">
		<use xlink:href="#SVGID_00000025419131838775668130000013203649961007118258_"  style="overflow:visible;"/>
	</clipPath>
	<g style="clip-path:url(#SVGID_00000173873956093230658710000001797250227330911408_);">
		
			<use xlink:href="#Eraser"  width="22.1" height="20.1" x="-11.1" y="-10" transform="matrix(1 0 0 -1 35.9278 11.975)" style="overflow:visible;"/>
	</g>
</g>
<g>
	<defs>
		<rect id="SVGID_00000107582031124961311070000009298241825485757319_" x="47.9" width="24" height="24"/>
	</defs>
	<clipPath id="SVGID_00000141448659325163326090000001604645151089803393_">
		<use xlink:href="#SVGID_00000107582031124961311070000009298241825485757319_"  style="overflow:visible;"/>
	</clipPath>
	<g style="clip-path:url(#SVGID_00000141448659325163326090000001604645151089803393_);">
		
			<use xlink:href="#SendHorizontal"  width="21.1" height="19.9" x="-10.6" y="-10" transform="matrix(1 0 0 -1 59.8591 11.9312)" style="overflow:visible;"/>
	</g>
</g>
</svg>
